#!OML:ASF I:\Random Stuff\random\construction\7_22_03\Session 2\subj1.ASF
:FULLY-SPECIFIED
:DEGREES
498
root -8.37525 17.5892 -0.339626 -138.187 72.8105 -160.652
lowerback 18.8376 5.06795 -4.66845
upperback 5.78657 6.04546 -6.02343
thorax -4.01694 3.24424 -5.15435
lowerneck -20.019 8.37526 -0.246311
upperneck 33.5283 21.6976 -14.8557
head 17.918 7.37618 -1.68718
rclavicle -2.38542e-015 5.1684e-014
rhumerus 2.22723 41.4718 -85.6738
rradius 102.234
rwrist -17.329
rhand -26.8357 30.0396
rfingers 7.12502
rthumb -0.261376 0.059982
lclavicle -2.38542e-015 5.1684e-014
lhumerus 27.3074 -10.619 67.9568
lradius 39.4421
lwrist -6.77374
lhand -41.3743 69.2926
lfingers 7.12502
lthumb -14.2923 -98.7807
rfemur -11.373 -0.341545 16.4785
rtibia 1.74931e-014
rfoot -0.816703 -18.4417
rtoes -26.2739
lfemur -45.3709 -5.65703 -3.12769
ltibia 29.4153
lfoot -8.67324 0.862603
ltoes -34.3063
499
root -8.39133 17.5943 -0.33926 -137.376 72.8977 -159.858
lowerback 19.0913 5.33415 -3.86419
upperback 5.73864 6.51216 -6.33961
thorax -4.05199 3.48335 -6.07935
lowerneck -20.0666 8.09774 0.43388
upperneck 33.7868 20.9663 -14.6416
head 18.0158 7.1788 -1.88127
rclavicle 3.4191e-014 -1.09729e-013
rhumerus 2.04923 40.7498 -85.908
rradius 102.439
rwrist -17.0024
rhand -26.5706 29.7721
rfingers 7.12502
rthumb -0.0053879 -0.207685
lclavicle 3.4191e-014 -1.09729e-013
lhumerus 27.889 -11.8666 67.4287
lradius 39.4399
lwrist -6.22612
lhand -41.3928 69.429
lfingers 7.12502
lthumb -14.3101 -98.9159
rfemur -11.5325 -0.151764 16.4732
rtibia 7.95139e-015
rfoot -0.819622 -17.3926
rtoes -23.5592
lfemur -45.3588 -5.58319 -2.88992
ltibia 29.3359
lfoot -8.59482 1.02016
ltoes -34.1939
500
root -8.40653 17.5964 -0.337926 -137.206 73.0534 -159.682
lowerback 19.0103 4.99681 -4.40823
upperback 5.92166 6.00028 -5.78162
thorax -3.96742 3.21839 -5.03582
lowerneck -20.283 8.50155 -0.557349
upperneck 33.4002 21.9771 -14.9138
head 17.9223 7.42483 -1.58018
rclavicle -6.83819e-014 -4.77083e-015
rhumerus 2.98687 43.0109 -84.7683
rradius 102.686
rwrist -16.9972
rhand -26.4323 29.153
rfingers 7.12502
rthumb 0.128244 -0.826729
lclavicle -6.83819e-014 -4.77083e-015
lhumerus 27.3357 -9.89927 67.9745
lradius 39.303
lwrist -6.20339
lhand -41.4365 69.4918
lfingers 7.12502
lthumb -14.3522 -98.9756
rfemur -11.6085 -0.0517019 16.2038
rtibia 0
rfoot -0.811086 -15.9174
rtoes -21.277
lfemur -45.3121 -5.58066 -2.87072
ltibia 29.2574
lfoot -8.536 1.14041
ltoes -33.8605
501
root -8.42121 17.5953 -0.337438 -137.584 73.2249 -160.02
lowerback 19.1312 4.97082 -4.45007
upperback 6.06212 5.97068 -5.6688
thorax -3.8967 3.206 -4.88704
lowerneck -20.3166 8.56562 -0.680354
upperneck 33.1863 22.1022 -15.0724
head 17.8477 7.45196 -1.59246
rclavicle 4.37326e-014 4.53229e-014
rhumerus 3.43477 43.5267 -84.2369
rradius 103.024
rwrist -16.7394
rhand -26.0662 28.1788
rfingers 7.12502
rthumb 0.481788 -1.80036
lclavicle 4.37326e-014 4.53229e-014
lhumerus 27.4356 -9.65695 67.9904
lradius 39.1685
lwrist -5.75395
lhand -41.4725 69.6171
lfingers 7.12502
lthumb -14.3869 -99.0985
rfemur -11.6079 -0.0584432 15.727
rtibia -3.18055e-015
rfoot -0.925661 -14.2008
rtoes -19.9999
lfemur -45.2276 -5.62725 -3.0331
ltibia 29.1629
lfoot -8.46027 1.18174
ltoes -33.5685
502
root -8.43915 17.5929 -0.340396 -138.145 73.3971 -160.559
lowerback 19.483 5.31927 -3.65095
upperback 6.09391 6.5557 -6.14701
thorax -3.86891 3.51605 -6.01605
lowerneck -20.2715 8.17329 0.248223
upperneck 33.4152 21.0785 -14.8762
head 17.9025 7.17694 -1.90686
rclavicle 7.63333e-014 4.45278e-014
rhumerus 3.16245 41.8574 -84.6623
rradius 103.389
rwrist -16.2368
rhand -25.5059 27.2454
rfingers 7.12502
rthumb 1.02297 -2.73192
lclavicle 7.63333e-014 4.45278e-014
lhumerus 28.3008 -11.6251 67.2447
lradius 39.1543
lwrist -4.72287
lhand -41.5521 69.765
lfingers 7.12502
lthumb -14.4636 -99.241
rfemur -11.6075 -0.116117 15.1461
rtibia 6.36111e-015
rfoot -1.23134 -12.4973
rtoes -19.1505
lfemur -45.1639 -5.60515 -3.31533
ltibia 29.0366
lfoot -8.3327 1.06282
ltoes -33.322
503
root -8.45868 17.593 -0.343629 -138.89 73.5885 -161.336
lowerback 19.4527 5.03373 -4.03106
upperback 6.25951 6.13669 -5.7533
thorax -3.79004 3.30162 -5.26846
lowerneck -20.1167 8.48247 -0.433145
upperneck 32.8085 21.7693 -15.2871
head 17.6242 7.3692 -1.80341
rclavicle 1.07344e-013 -9.62118e-014
rhumerus 3.9452 43.0435 -83.8974
rradius 103.736
rwrist -16.2064
rhand -24.7824 26.4421
rfingers 7.12502
rthumb 1.72169 -3.53068
lclavicle 1.07344e-013 -9.62118e-014
lhumerus 27.8654 -10.4865 67.4018
lradius 39.134
lwrist -4.05033
lhand -41.5849 69.8197
lfingers 7.12502
lthumb -14.4953 -99.2934
rfemur -11.654 -0.209192 14.4829
rtibia -9.54166e-015
rfoot -1.72138 -10.8822
rtoes -18.3411
lfemur -45.1896 -5.43792 -3.77329
ltibia 28.9061
lfoot -8.16423 0.769281
ltoes -33.4857
504
root -8.47877 17.5939 -0.344914 -139.725 73.8277 -162.247
lowerback 19.596 5.15523 -3.80829
upperback 6.32845 6.33779 -5.89611
thorax -3.73659 3.41049 -5.60258
lowerneck -20.0012 8.38546 -0.118517
upperneck 32.708 21.4024 -15.2625
head 17.5243 7.28039 -1.93265
rclavicle 9.46215e-014 -8.42847e-014
rhumerus 4.13265 42.2156 -83.933
rradius 104.102
rwrist -15.9425
rhand -23.7883 25.7452
rfingers 7.12502
rthumb 2.68178 -4.21767
lclavicle 9.46215e-014 -8.42847e-014
lhumerus 28.2947 -11.3747 66.8314
lradius 39.1121
lwrist -2.91149
lhand -41.5347 69.844
lfingers 7.12502
lthumb -14.4468 -99.3212
rfemur -11.7715 -0.280622 13.795
rtibia 1.11319e-014
rfoot -2.26282 -9.44936
rtoes -18.4558
lfemur -45.2859 -5.25959 -4.28814
ltibia 28.8025
lfoot -8.00084 0.545197
ltoes -33.9711
505
root -8.50202 17.5861 -0.347279 -140.672 74.0514 -163.259
lowerback 19.7916 5.2615 -3.56053
upperback 6.38963 6.51987 -6.04009
thorax -3.71391 3.51047 -5.95527
lowerneck -20.072 8.24495 0.180332
upperneck 32.8284 21.0111 -15.1062
head 17.558 7.16617 -2.00525
rclavicle -1.11319e-014 2.8625e-014
rhumerus 4.47433 41.3855 -83.8805
rradius 104.448
rwrist -15.5178
rhand -22.4575 25.1785
rfingers 7.12502
rthumb 3.96694 -4.76433
lclavicle -1.11319e-014 2.8625e-014
lhumerus 28.7206 -12.1987 66.2761
lradius 39.1048
lwrist -1.61159
lhand -41.5096 69.7465
lfingers 7.12502
lthumb -14.4227 -99.2253
rfemur -11.8841 -0.360608 13.1537
rtibia 1.27222e-014
rfoot -2.66734 -8.39875
rtoes -19.2249
lfemur -45.411 -5.13124 -4.79131
ltibia 28.7847
lfoot -7.89308 0.353087
ltoes -34.1245
506
root -8.52599 17.5708 -0.350918 -141.796 74.2121 -164.365
lowerback 20.0439 5.15038 -3.55781
upperback 6.50003 6.37567 -5.95464
thorax -3.7448 3.4422 -5.85295
lowerneck -20.2492 8.2861 0.0804213
upperneck 32.794 21.0871 -15.1118
head 17.5825 7.1705 -1.96414
rclavicle -3.26007e-014 6.04305e-014
rhumerus 5.33769 41.4798 -83.394
rradius 104.667
rwrist -14.9873
rhand -21.008 24.5966
rfingers 7.12502
rthumb 5.36659 -5.31541
lclavicle -3.26007e-014 6.04305e-014
lhumerus 28.7986 -12.0647 66.0292
lradius 39.0191
lwrist -0.449782
lhand -41.4906 69.5045
lfingers 7.12502
lthumb -14.4044 -98.9847
rfemur -11.8705 -0.46804 12.6121
rtibia -4.13472e-014
rfoot -2.97223 -7.73815
rtoes -21.3063
lfemur -45.5194 -5.00364 -5.32611
ltibia 28.8987
lfoot -7.83944 0.0789226
ltoes -34.2914
507
root -8.55272 17.5526 -0.352348 -142.169 74.3609 -164.737
lowerback 20.3288 5.01897 -3.45628
upperback 6.53951 6.20826 -5.79564
thorax -3.87004 3.35557 -5.72876
lowerneck -20.2276 8.40363 -0.140842
upperneck 32.5848 21.2574 -15.1402
head 17.4631 7.22122 -1.89669
rclavicle 1.59028e-014 3.81667e-014
rhumerus 6.38704 41.9335 -82.7868
rradius 104.785
rwrist -14.7319
rhand -19.7289 23.6593
rfingers 7.12502
rthumb 6.60156 -6.21779
lclavicle 1.59028e-014 3.81667e-014
lhumerus 28.7591 -11.755 65.8742
lradius 38.9374
lwrist 0.50466
lhand -41.3489 69.4883
lfingers 7.12502
lthumb -14.2678 -98.9782
rfemur -11.9067 -0.439602 12.333
rtibia 2.22639e-014
rfoot -3.50582 -7.47764
rtoes -23.3198
lfemur -45.7081 -4.8493 -5.59597
ltibia 29.0903
lfoot -7.80034 -0.0424911
ltoes -34.6726
508
root -8.58294 17.5345 -0.350121 -141.478 74.5414 -164.148
lowerback 20.4147 5.01231 -3.21307
upperback 6.57453 6.24078 -5.6024
thorax -3.87403 3.366 -5.66864
lowerneck -20.2069 8.45977 -0.352972
upperneck 32.4234 21.3101 -15.0988
head 17.3413 7.23315 -1.83023
rclavicle -6.20208e-014 4.6118e-014
rhumerus 7.68095 42.3957 -81.9068
rradius 104.847
rwrist -14.9552
rhand -18.9443 22.4963
rfingers 7.12502
rthumb 7.35894 -7.35575
lclavicle -6.20208e-014 4.6118e-014
lhumerus 28.8693 -11.5988 65.748
lradius 38.8867
lwrist 1.17525
lhand -41.0224 69.7127
lfingers 7.12502
lthumb -13.9533 -99.2245
rfemur -12.1418 -0.223653 12.3344
rtibia -1.11319e-014
rfoot -4.14376 -7.67689
rtoes -23.4996
lfemur -46.006 -4.62779 -5.52129
ltibia 29.2691
lfoot -7.74009 0.0178789
ltoes -34.8296
509
root -8.61066 17.527 -0.345316 -140.969 74.8379 -163.733
lowerback 20.3688 5.06267 -3.17768
upperback 6.6903 6.32904 -5.42496
thorax -3.73742 3.40824 -5.5015
lowerneck -20.2987 8.5028 -0.461188
upperneck 32.2689 21.3599 -15.156
head 17.2857 7.2352 -1.81761
rclavicle 6.91771e-014 -5.52621e-014
rhumerus 9.27732 42.9857 -80.741
rradius 104.857
rwrist -15.3856
rhand -18.7817 21.36
rfingers 7.12502
rthumb 7.51584 -8.4865
lclavicle 6.91771e-014 -5.52621e-014
lhumerus 29.0756 -11.3991 65.5929
lradius 38.7646
lwrist 1.66369
lhand -40.804 69.8219
lfingers 7.12502
lthumb -13.7427 -99.348
rfemur -12.3869 0.0662857 12.2723
rtibia 1.59028e-015
rfoot -4.60399 -8.04077
rtoes -23.5212
lfemur -46.2011 -4.35628 -5.56182
ltibia 29.3962
lfoot -7.68337 0.0631952
ltoes -34.751
510
root -8.63716 17.5268 -0.341921 -141.262 75.2676 -164.087
lowerback 20.5539 5.0573 -3.21609
upperback 6.69932 6.30173 -5.43518
thorax -3.82647 3.39396 -5.5056
lowerneck -20.2263 8.60277 -0.386375
upperneck 32.0582 21.4429 -15.2944
head 17.2031 7.27784 -1.86752
rclavicle 3.33958e-014 -6.32135e-014
rhumerus 10.7542 43.6641 -79.8206
rradius 104.827
rwrist -15.8315
rhand -18.7792 20.5376
rfingers 7.12502
rthumb 7.51831 -9.30881
lclavicle 3.33958e-014 -6.32135e-014
lhumerus 29.0676 -11.3416 65.1598
lradius 38.683
lwrist 2.2147
lhand -40.7561 69.9392
lfingers 7.12502
lthumb -13.6966 -99.4685
rfemur -12.5468 0.329871 11.9223
rtibia 2.06736e-014
rfoot -5.01563 -8.25838
rtoes -23.5893
lfemur -46.2684 -4.08594 -5.92371
ltibia 29.461
lfoot -7.63419 0.0245363
ltoes -34.6507
511
root -8.66241 17.5232 -0.340573 -141.69 75.7021 -164.568
lowerback 20.996 5.0177 -3.02198
upperback 6.57589 6.23975 -5.61924
thorax -4.14816 3.36202 -5.86047
lowerneck -20.1322 8.69228 -0.227898
upperneck 31.9532 21.4453 -15.2823
head 17.1387 7.30924 -1.88965
rclavicle 2.46493e-014 -3.69739e-014
rhumerus 11.9658 44.1496 -79.303
rradius 104.705
rwrist -16.0536
rhand -18.718 19.8267
rfingers 7.12502
rthumb 7.57734 -10.0175
lclavicle 2.46493e-014 -3.69739e-014
lhumerus 28.9544 -11.649 64.4285
lradius 38.6807
lwrist 2.90135
lhand -40.7151 70.214
lfingers 7.12502
lthumb -13.6571 -99.746
rfemur -12.7116 0.570888 11.5031
rtibia 9.54166e-015
rfoot -5.42537 -8.4503
rtoes -22.6736
lfemur -46.2959 -3.79783 -6.34265
ltibia 29.4642
lfoot -7.57402 -0.0550745
ltoes -34.6455
